<svg width="42" height="24" viewBox="0 0 42 24" fill="none" xmlns="http://www.w3.org/2000/svg">
<path d="M-0.00146484 0.63623H5.61454V20.0042H17.0985V24.0002H-0.00146484V0.63623Z" fill="#36D000"/>
<path d="M20.8813 0.63623H31.3933C34.5133 0.63623 36.7693 1.02023 38.1613 1.78823C39.5533 2.53223 40.2493 3.79223 40.2493 5.56823V9.67223C40.2493 11.0402 39.7574 12.1202 38.7733 12.9122C37.8134 13.6802 36.5294 14.1722 34.9213 14.3882L41.6893 24.0002H35.2093L29.0893 14.8202H26.4973V24.0002H20.8813V0.63623ZM31.3213 11.1122C32.6413 11.1122 33.5413 10.9442 34.0213 10.6082C34.5013 10.2482 34.7413 9.56423 34.7413 8.55623V6.90023C34.7413 6.03623 34.4773 5.44823 33.9493 5.13623C33.4453 4.80023 32.5693 4.63223 31.3213 4.63223H26.4973V11.1122H31.3213Z" fill="#36D000"/>
</svg>
