<svg width="185" height="24" viewBox="0 0 185 24" fill="none" xmlns="http://www.w3.org/2000/svg">
<g clipPath="url(#clip0_461_139)">
<path d="M63.7851 24.3604C61.5531 24.3604 58.7931 24.1444 55.5051 23.7124V19.4284C59.5851 20.0524 62.3691 20.3644 63.8571 20.3644C66.9771 20.3644 68.5371 19.5604 68.5371 17.9524V16.4404C68.5371 15.6724 68.3091 15.0844 67.8531 14.6764C67.4211 14.2684 66.6291 14.0644 65.4771 14.0644H62.7411C57.6051 14.0644 55.0371 12.0244 55.0371 7.94437V6.21637C55.0371 4.17637 55.8891 2.67637 57.5931 1.71637C59.2971 0.756367 61.9971 0.276367 65.6931 0.276367C67.6131 0.276367 70.0491 0.432367 73.0011 0.744368V4.92037C69.3771 4.48837 66.8811 4.27237 65.5131 4.27237C63.6171 4.27237 62.3451 4.42837 61.6971 4.74037C61.0011 5.07637 60.6531 5.60437 60.6531 6.32437V7.98037C60.6531 9.20437 61.6851 9.81637 63.7491 9.81637H66.5571C69.2211 9.81637 71.1531 10.3084 72.3531 11.2924C73.5531 12.2764 74.1531 13.7764 74.1531 15.7924V17.3404C74.1531 20.1244 73.1571 22.0084 71.1651 22.9924C70.2051 23.4964 69.1371 23.8444 67.9611 24.0364C66.8091 24.2524 65.4171 24.3604 63.7851 24.3604Z" fill="white"/>
<path d="M83.4571 4.63237H76.2571V0.636367H96.2371V4.63237H89.0731V24.0004H83.4571V4.63237Z" fill="white"/>
<path d="M109.511 24.3604C102.767 24.3604 99.3953 22.1044 99.3953 17.5924V0.636367H105.011V17.5924C105.011 18.6484 105.347 19.3804 106.019 19.7884C106.715 20.1724 107.903 20.3644 109.583 20.3644C111.239 20.3644 112.391 20.1724 113.039 19.7884C113.711 19.3804 114.047 18.6484 114.047 17.5924V0.636367H119.663V17.5924C119.663 22.1044 116.279 24.3604 109.511 24.3604Z" fill="white"/>
<path d="M124.639 0.636367H134.575C137.311 0.636367 139.471 0.852367 141.055 1.28437C142.639 1.69237 143.803 2.41237 144.547 3.44437C145.291 4.47637 145.663 5.90437 145.663 7.72837V17.2324C145.663 19.0084 145.315 20.3884 144.619 21.3724C143.923 22.3324 142.783 23.0164 141.199 23.4244C139.615 23.8084 137.419 24.0004 134.611 24.0004H124.639V0.636367ZM134.359 20.0044C135.895 20.0044 137.047 19.9444 137.815 19.8244C138.607 19.6804 139.171 19.4164 139.507 19.0324C139.867 18.6484 140.047 18.0484 140.047 17.2324V7.62037C140.047 6.51637 139.603 5.74837 138.715 5.31637C137.851 4.86037 136.459 4.63237 134.539 4.63237H130.255V20.0044H134.359Z" fill="white"/>
<path d="M150.198 0.636367H155.814V24.0004H150.198V0.636367Z" fill="white"/>
<path d="M171.398 24.3604C170.102 24.3604 168.902 24.2764 167.798 24.1084C166.718 23.9404 165.59 23.6524 164.414 23.2444C163.142 22.8124 162.146 22.1164 161.426 21.1564C160.706 20.1724 160.346 18.9844 160.346 17.5924V7.36837C160.346 6.21637 160.598 5.18437 161.102 4.27237C161.63 3.36037 162.302 2.64037 163.118 2.11237C163.838 1.65637 164.726 1.27237 165.782 0.960367C166.838 0.648367 167.822 0.456367 168.734 0.384368C169.574 0.312367 170.462 0.276367 171.398 0.276367C172.502 0.276367 173.462 0.324367 174.278 0.420367C175.094 0.492368 176.006 0.660368 177.014 0.924367C178.166 1.26037 179.114 1.66837 179.858 2.14837C180.602 2.62837 181.226 3.30037 181.73 4.16437C182.258 5.05237 182.522 6.12037 182.522 7.36837V17.5924C182.522 18.8884 182.174 20.0044 181.478 20.9404C180.806 21.8764 179.87 22.5844 178.67 23.0644C176.51 23.9284 174.086 24.3604 171.398 24.3604ZM171.47 20.3644C172.262 20.3644 172.922 20.3404 173.45 20.2924C174.002 20.2204 174.566 20.1004 175.142 19.9324C175.718 19.7644 176.15 19.4884 176.438 19.1044C176.75 18.6964 176.906 18.1924 176.906 17.5924V7.33237C176.906 6.22837 176.462 5.44837 175.574 4.99237C174.686 4.51237 173.306 4.27237 171.434 4.27237C169.562 4.27237 168.182 4.50037 167.294 4.95637C166.406 5.41237 165.962 6.20437 165.962 7.33237V17.5924C165.962 18.1924 166.118 18.6964 166.43 19.1044C166.742 19.4884 167.198 19.7644 167.798 19.9324C168.374 20.1004 168.926 20.2204 169.454 20.2924C170.006 20.3404 170.678 20.3644 171.47 20.3644Z" fill="white"/>
<path d="M2.99854 0.636719H8.61454V20.0047H20.0985V24.0007H2.99854V0.636719Z" fill="#36D000"/>
<path d="M23.8813 0.636719H34.3933C37.5133 0.636719 39.7693 1.02072 41.1613 1.78872C42.5533 2.53272 43.2493 3.79272 43.2493 5.56872V9.67272C43.2493 11.0407 42.7574 12.1207 41.7733 12.9127C40.8134 13.6807 39.5294 14.1727 37.9213 14.3887L44.6893 24.0007H38.2093L32.0893 14.8207H29.4973V24.0007H23.8813V0.636719ZM34.3213 11.1127C35.6413 11.1127 36.5413 10.9447 37.0213 10.6087C37.5013 10.2487 37.7413 9.56472 37.7413 8.55672V6.90072C37.7413 6.03672 37.4773 5.44872 36.9493 5.13672C36.4453 4.80072 35.5693 4.63272 34.3213 4.63272H29.4973V11.1127H34.3213Z" fill="#36D000"/>
</g>
<defs>
<clipPath id="clip0_461_139">
<rect width="185" height="24" fill="white"/>
</clipPath>
</defs>
</svg>
